<svg width="1440" height="640" viewBox="0 0 1440 640" fill="none" xmlns="http://www.w3.org/2000/svg">
  <defs>
    <linearGradient id="e-bg" x1="0" y1="0" x2="1440" y2="640" gradientUnits="userSpaceOnUse">
      <stop stop-color="#F8FAFC"/>
      <stop offset="1" stop-color="#E2E8F0"/>
    </linearGradient>
    <linearGradient id="e-line" x1="720" y1="104" x2="720" y2="536" gradientUnits="userSpaceOnUse">
      <stop stop-color="#0EA5E9"/>
      <stop offset="1" stop-color="#155E75"/>
    </linearGradient>
  </defs>
  <rect width="1440" height="640" fill="url(#e-bg)"/>

  <text x="720" y="72" text-anchor="middle" fill="#0F172A" font-family="Segoe UI, Arial, sans-serif" font-size="38" font-weight="700">FNLLA Ecosystem Overview</text>

  <line x1="720" y1="128" x2="720" y2="520" stroke="url(#e-line)" stroke-width="4"/>

  <g fill="#0F172A" stroke="#0891B2" stroke-width="2">
    <rect x="610" y="128" width="220" height="64" rx="14" fill="#082F49"/>
    <rect x="190" y="236" width="240" height="64" rx="14" fill="#0E7490"/>
    <rect x="470" y="236" width="240" height="64" rx="14" fill="#0369A1"/>
    <rect x="750" y="236" width="240" height="64" rx="14" fill="#0369A1"/>
    <rect x="1030" y="236" width="240" height="64" rx="14" fill="#0E7490"/>
    <rect x="190" y="378" width="240" height="64" rx="14" fill="#164E63"/>
    <rect x="470" y="378" width="240" height="64" rx="14" fill="#164E63"/>
    <rect x="750" y="378" width="240" height="64" rx="14" fill="#164E63"/>
    <rect x="1030" y="378" width="240" height="64" rx="14" fill="#164E63"/>
  </g>

  <g stroke="#0EA5E9" stroke-width="3" opacity="0.8">
    <line x1="720" y1="192" x2="310" y2="236"/>
    <line x1="720" y1="192" x2="590" y2="236"/>
    <line x1="720" y1="192" x2="870" y2="236"/>
    <line x1="720" y1="192" x2="1150" y2="236"/>
    <line x1="310" y1="300" x2="310" y2="378"/>
    <line x1="590" y1="300" x2="590" y2="378"/>
    <line x1="870" y1="300" x2="870" y2="378"/>
    <line x1="1150" y1="300" x2="1150" y2="378"/>
  </g>

  <g fill="#ECFEFF" font-family="Segoe UI, Arial, sans-serif" font-size="22" font-weight="700" text-anchor="middle">
    <text x="720" y="168">Organization Layer (.github)</text>
    <text x="310" y="276">framework</text>
    <text x="590" y="276">packages</text>
    <text x="870" y="276">fnlla starter</text>
    <text x="1150" y="276">installer</text>
    <text x="310" y="418">docs</text>
    <text x="590" y="418">quality</text>
    <text x="870" y="418">dev-env</text>
    <text x="1150" y="418">vscode-extension</text>
  </g>

  <g fill="#0F172A" font-family="Segoe UI, Arial, sans-serif" font-size="16" text-anchor="middle">
    <text x="310" y="470">Core runtime and release control</text>
    <text x="590" y="470">Public package distribution</text>
    <text x="870" y="470">Official application template</text>
    <text x="1150" y="470">Project bootstrap CLI</text>
  </g>
</svg>
